<?xml version="1.0" standalone="no"?>
<!DOCTYPE svg PUBLIC "-//W3C//DTD SVG 20010904//EN"
 "http://www.w3.org/TR/2001/REC-SVG-20010904/DTD/svg10.dtd">
<svg version="1.0" xmlns="http://www.w3.org/2000/svg"
 width="512.000000pt" height="512.000000pt" viewBox="0 0 512.000000 512.000000"
 preserveAspectRatio="xMidYMid meet">
<metadata>
Created by potrace 1.11, written by Peter Selinger 2001-2013
</metadata>
<g transform="translate(0.000000,512.000000) scale(0.100000,-0.100000)"
fill="#000000" stroke="none">
<path d="M2470 4350 l0 -150 150 0 150 0 0 150 0 150 -150 0 -150 0 0 -150z"/>
<path d="M1636 4304 c-71 -30 -131 -56 -133 -57 -2 -3 103 -260 112 -274 1 -2
267 107 273 112 2 2 -10 35 -27 75 -17 40 -31 78 -31 86 0 8 -4 14 -10 14 -5
0 -10 7 -10 15 0 17 -31 85 -39 85 -3 -1 -64 -25 -135 -56z"/>
<path d="M3444 4324 c-8 -22 -21 -52 -29 -69 -31 -69 -67 -166 -63 -170 2 -2
64 -29 137 -59 l132 -55 14 32 c7 17 33 80 58 138 l45 106 -127 53 c-69 29
-132 54 -139 57 -7 3 -18 -10 -28 -33z"/>
<path d="M2418 3625 c-2 -1 -26 -5 -55 -9 -269 -32 -547 -154 -763 -335 -245
-206 -424 -498 -496 -806 -21 -92 -21 -90 -28 -165 -14 -129 -15 -146 -21
-220 -3 -41 -8 -102 -10 -135 -3 -33 -8 -89 -10 -125 -5 -66 -10 -120 -20
-245 -3 -38 -8 -97 -10 -130 -5 -66 -13 -163 -20 -240 -3 -27 -8 -90 -11 -140
-4 -49 -8 -101 -9 -115 -2 -14 -3 -33 -4 -42 -1 -17 -27 -18 -406 -18 l-405 0
0 -450 0 -450 2410 0 2410 0 0 450 0 450 -405 0 c-317 0 -405 3 -406 13 -1 6
-2 23 -4 37 -1 14 -5 70 -9 125 -4 55 -9 111 -11 125 -2 14 -7 70 -11 125 -3
55 -8 114 -9 130 -1 17 -6 71 -10 120 -3 50 -8 110 -10 135 -2 25 -7 79 -10
120 -3 41 -8 95 -10 120 -2 25 -7 81 -10 125 -10 137 -23 270 -29 301 -2 12
-7 37 -10 56 -3 20 -10 47 -15 62 -6 14 -9 26 -6 26 7 0 -51 161 -82 231 -73
159 -183 316 -305 436 -102 101 -120 116 -228 188 -252 169 -525 252 -832 253
-75 0 -138 -1 -140 -3z"/>
</g>
</svg>
